<mxfile host="Electron" modified="2023-10-05T23:32:51.938Z" agent="Mozilla/5.0 (Windows NT 10.0; Win64; x64) AppleWebKit/537.36 (KHTML, like Gecko) draw.io/22.0.2 Chrome/114.0.5735.289 Electron/25.8.4 Safari/537.36" etag="bohVjnaD8ejmPirEg5pa" version="22.0.2" type="device">
  <diagram id="wFE0QG_FPsp0jaGvCLVb" name="APP navigation">
    <mxGraphModel dx="2056" dy="817" grid="1" gridSize="10" guides="1" tooltips="1" connect="1" arrows="1" fold="1" page="1" pageScale="1" pageWidth="850" pageHeight="1100" math="0" shadow="0">
      <root>
        <mxCell id="0" />
        <mxCell id="1" parent="0" />
        <mxCell id="n-mMuuMtZOQz2WrlE01w-2" value="Home screen" style="swimlane;whiteSpace=wrap;html=1;" parent="1" vertex="1">
          <mxGeometry x="325" y="130" width="200" height="310" as="geometry" />
        </mxCell>
        <mxCell id="n-mMuuMtZOQz2WrlE01w-3" value="" style="ellipse;whiteSpace=wrap;html=1;" parent="n-mMuuMtZOQz2WrlE01w-2" vertex="1">
          <mxGeometry x="65" y="50" width="70" height="70" as="geometry" />
        </mxCell>
        <mxCell id="n-mMuuMtZOQz2WrlE01w-4" value="UserName" style="rounded=0;whiteSpace=wrap;html=1;" parent="n-mMuuMtZOQz2WrlE01w-2" vertex="1">
          <mxGeometry x="60" y="125" width="80" height="25" as="geometry" />
        </mxCell>
        <mxCell id="n-mMuuMtZOQz2WrlE01w-5" value="" style="shape=umlActor;verticalLabelPosition=bottom;verticalAlign=top;html=1;outlineConnect=0;" parent="n-mMuuMtZOQz2WrlE01w-2" vertex="1">
          <mxGeometry x="88" y="57.5" width="25" height="55" as="geometry" />
        </mxCell>
        <mxCell id="n-mMuuMtZOQz2WrlE01w-6" value="Settings" style="rounded=1;whiteSpace=wrap;html=1;arcSize=32;" parent="n-mMuuMtZOQz2WrlE01w-2" vertex="1">
          <mxGeometry x="10" y="250" width="55" height="50" as="geometry" />
        </mxCell>
        <mxCell id="n-mMuuMtZOQz2WrlE01w-7" value="Play" style="rounded=1;whiteSpace=wrap;html=1;arcSize=32;" parent="n-mMuuMtZOQz2WrlE01w-2" vertex="1">
          <mxGeometry x="73" y="250" width="55" height="50" as="geometry" />
        </mxCell>
        <mxCell id="n-mMuuMtZOQz2WrlE01w-8" value="Create" style="rounded=1;whiteSpace=wrap;html=1;arcSize=32;" parent="n-mMuuMtZOQz2WrlE01w-2" vertex="1">
          <mxGeometry x="135" y="250" width="55" height="50" as="geometry" />
        </mxCell>
        <mxCell id="n-mMuuMtZOQz2WrlE01w-10" value="Play screen" style="swimlane;whiteSpace=wrap;html=1;" parent="1" vertex="1">
          <mxGeometry x="325" y="610" width="200" height="210" as="geometry">
            <mxRectangle x="325.5" y="600" width="110" height="30" as="alternateBounds" />
          </mxGeometry>
        </mxCell>
        <mxCell id="n-mMuuMtZOQz2WrlE01w-15" value="Host game" style="rounded=1;whiteSpace=wrap;html=1;" parent="n-mMuuMtZOQz2WrlE01w-10" vertex="1">
          <mxGeometry x="40" y="50" width="120" height="60" as="geometry" />
        </mxCell>
        <mxCell id="n-mMuuMtZOQz2WrlE01w-16" value="Join game" style="rounded=1;whiteSpace=wrap;html=1;" parent="n-mMuuMtZOQz2WrlE01w-10" vertex="1">
          <mxGeometry x="40.5" y="130" width="120" height="60" as="geometry" />
        </mxCell>
        <mxCell id="n-mMuuMtZOQz2WrlE01w-34" value="" style="html=1;shadow=0;dashed=0;align=center;verticalAlign=middle;shape=mxgraph.arrows2.uTurnArrow;dy=3.17;arrowHead=16.2;dx2=16.61;rotation=0;" parent="n-mMuuMtZOQz2WrlE01w-10" vertex="1">
          <mxGeometry x="6" y="173" width="30" height="30" as="geometry" />
        </mxCell>
        <mxCell id="n-mMuuMtZOQz2WrlE01w-9" style="edgeStyle=orthogonalEdgeStyle;rounded=0;orthogonalLoop=1;jettySize=auto;html=1;exitX=0.5;exitY=1;exitDx=0;exitDy=0;entryX=0.5;entryY=0;entryDx=0;entryDy=0;jumpStyle=arc;" parent="1" source="n-mMuuMtZOQz2WrlE01w-7" target="n-mMuuMtZOQz2WrlE01w-10" edge="1">
          <mxGeometry relative="1" as="geometry">
            <mxPoint x="425.58620689655186" y="590" as="targetPoint" />
          </mxGeometry>
        </mxCell>
        <mxCell id="n-mMuuMtZOQz2WrlE01w-12" style="orthogonalLoop=1;jettySize=auto;html=1;entryX=0.992;entryY=0.047;entryDx=0;entryDy=0;entryPerimeter=0;rounded=0;endArrow=none;endFill=0;" parent="1" source="n-mMuuMtZOQz2WrlE01w-11" target="n-mMuuMtZOQz2WrlE01w-10" edge="1">
          <mxGeometry relative="1" as="geometry" />
        </mxCell>
        <mxCell id="n-mMuuMtZOQz2WrlE01w-11" value="Can be a pop-up in the Home screen" style="shape=note;whiteSpace=wrap;html=1;backgroundOutline=1;darkOpacity=0.05;size=15;" parent="1" vertex="1">
          <mxGeometry x="580" y="540" width="90" height="120" as="geometry" />
        </mxCell>
        <mxCell id="n-mMuuMtZOQz2WrlE01w-19" value="Host game screen" style="swimlane;whiteSpace=wrap;html=1;" parent="1" vertex="1">
          <mxGeometry x="100" y="850" width="225" height="220" as="geometry" />
        </mxCell>
        <mxCell id="n-mMuuMtZOQz2WrlE01w-27" value="Scrollbar" style="swimlane;horizontal=0;whiteSpace=wrap;html=1;rotation=-180;" parent="n-mMuuMtZOQz2WrlE01w-19" vertex="1">
          <mxGeometry x="47.5" y="40" width="130" height="140" as="geometry" />
        </mxCell>
        <mxCell id="n-mMuuMtZOQz2WrlE01w-30" value="Option 1" style="rounded=0;whiteSpace=wrap;html=1;" parent="n-mMuuMtZOQz2WrlE01w-27" vertex="1">
          <mxGeometry x="10" y="10" width="90" height="20" as="geometry" />
        </mxCell>
        <mxCell id="n-mMuuMtZOQz2WrlE01w-31" value="Option 2" style="rounded=0;whiteSpace=wrap;html=1;" parent="n-mMuuMtZOQz2WrlE01w-27" vertex="1">
          <mxGeometry x="10" y="40" width="90" height="20" as="geometry" />
        </mxCell>
        <mxCell id="n-mMuuMtZOQz2WrlE01w-32" value="Option 3" style="rounded=0;whiteSpace=wrap;html=1;" parent="n-mMuuMtZOQz2WrlE01w-27" vertex="1">
          <mxGeometry x="10" y="70" width="90" height="20" as="geometry" />
        </mxCell>
        <mxCell id="n-mMuuMtZOQz2WrlE01w-33" value="Option 4" style="rounded=0;whiteSpace=wrap;html=1;" parent="n-mMuuMtZOQz2WrlE01w-27" vertex="1">
          <mxGeometry x="10" y="100" width="90" height="20" as="geometry" />
        </mxCell>
        <mxCell id="n-mMuuMtZOQz2WrlE01w-37" value="" style="html=1;shadow=0;dashed=0;align=center;verticalAlign=middle;shape=mxgraph.arrows2.uTurnArrow;dy=3.17;arrowHead=16.2;dx2=16.61;rotation=0;" parent="n-mMuuMtZOQz2WrlE01w-19" vertex="1">
          <mxGeometry x="7" y="163" width="30" height="30" as="geometry" />
        </mxCell>
        <mxCell id="n-mMuuMtZOQz2WrlE01w-18" style="edgeStyle=orthogonalEdgeStyle;rounded=0;orthogonalLoop=1;jettySize=auto;html=1;exitX=0;exitY=0.5;exitDx=0;exitDy=0;entryX=0.465;entryY=-0.016;entryDx=0;entryDy=0;entryPerimeter=0;jumpStyle=arc;" parent="1" source="n-mMuuMtZOQz2WrlE01w-15" target="n-mMuuMtZOQz2WrlE01w-19" edge="1">
          <mxGeometry relative="1" as="geometry">
            <mxPoint x="290" y="890" as="targetPoint" />
          </mxGeometry>
        </mxCell>
        <mxCell id="n-mMuuMtZOQz2WrlE01w-20" value="Join game screen" style="swimlane;whiteSpace=wrap;html=1;" parent="1" vertex="1">
          <mxGeometry x="520" y="870" width="200" height="200" as="geometry" />
        </mxCell>
        <mxCell id="n-mMuuMtZOQz2WrlE01w-43" value="" style="html=1;shadow=0;dashed=0;align=center;verticalAlign=middle;shape=mxgraph.arrows2.uTurnArrow;dy=3.17;arrowHead=16.2;dx2=16.61;rotation=0;" parent="n-mMuuMtZOQz2WrlE01w-20" vertex="1">
          <mxGeometry x="6" y="164" width="30" height="30" as="geometry" />
        </mxCell>
        <mxCell id="n-mMuuMtZOQz2WrlE01w-57" value="Enter code" style="rounded=0;whiteSpace=wrap;html=1;" parent="n-mMuuMtZOQz2WrlE01w-20" vertex="1">
          <mxGeometry x="36" y="60" width="120" height="60" as="geometry" />
        </mxCell>
        <mxCell id="n-mMuuMtZOQz2WrlE01w-58" value="Confirm" style="rounded=1;whiteSpace=wrap;html=1;arcSize=0;" parent="n-mMuuMtZOQz2WrlE01w-20" vertex="1">
          <mxGeometry x="51" y="130" width="90" height="50" as="geometry" />
        </mxCell>
        <mxCell id="n-mMuuMtZOQz2WrlE01w-17" style="edgeStyle=orthogonalEdgeStyle;rounded=0;orthogonalLoop=1;jettySize=auto;html=1;exitX=1;exitY=0.5;exitDx=0;exitDy=0;entryX=0.5;entryY=0;entryDx=0;entryDy=0;" parent="1" source="n-mMuuMtZOQz2WrlE01w-16" target="n-mMuuMtZOQz2WrlE01w-20" edge="1">
          <mxGeometry relative="1" as="geometry">
            <mxPoint x="560" y="880" as="targetPoint" />
          </mxGeometry>
        </mxCell>
        <mxCell id="n-mMuuMtZOQz2WrlE01w-38" style="edgeStyle=orthogonalEdgeStyle;rounded=0;orthogonalLoop=1;jettySize=auto;html=1;exitX=0;exitY=0;exitDx=0;exitDy=17.465;exitPerimeter=0;entryX=0;entryY=0.75;entryDx=0;entryDy=0;jumpStyle=arc;" parent="1" source="n-mMuuMtZOQz2WrlE01w-34" target="n-mMuuMtZOQz2WrlE01w-2" edge="1">
          <mxGeometry relative="1" as="geometry">
            <mxPoint x="330" y="410" as="targetPoint" />
            <Array as="points">
              <mxPoint x="290" y="801" />
              <mxPoint x="290" y="363" />
            </Array>
          </mxGeometry>
        </mxCell>
        <mxCell id="n-mMuuMtZOQz2WrlE01w-42" style="edgeStyle=orthogonalEdgeStyle;rounded=0;orthogonalLoop=1;jettySize=auto;html=1;entryX=0.25;entryY=1;entryDx=0;entryDy=0;exitX=0;exitY=0;exitDx=12.535;exitDy=30;exitPerimeter=0;" parent="1" source="n-mMuuMtZOQz2WrlE01w-37" target="n-mMuuMtZOQz2WrlE01w-10" edge="1">
          <mxGeometry relative="1" as="geometry">
            <Array as="points">
              <mxPoint x="119" y="1090" />
              <mxPoint x="375" y="1090" />
            </Array>
          </mxGeometry>
        </mxCell>
        <mxCell id="n-mMuuMtZOQz2WrlE01w-44" style="edgeStyle=orthogonalEdgeStyle;rounded=0;orthogonalLoop=1;jettySize=auto;html=1;exitX=0;exitY=0;exitDx=12.535;exitDy=30;exitPerimeter=0;entryX=0.75;entryY=1;entryDx=0;entryDy=0;" parent="1" source="n-mMuuMtZOQz2WrlE01w-43" target="n-mMuuMtZOQz2WrlE01w-10" edge="1">
          <mxGeometry relative="1" as="geometry" />
        </mxCell>
        <mxCell id="n-mMuuMtZOQz2WrlE01w-49" value="Hosted game preview screen" style="swimlane;whiteSpace=wrap;html=1;" parent="1" vertex="1">
          <mxGeometry x="-50" y="1200" width="200" height="200" as="geometry" />
        </mxCell>
        <mxCell id="n-mMuuMtZOQz2WrlE01w-50" value="Content" style="rounded=0;whiteSpace=wrap;html=1;" parent="n-mMuuMtZOQz2WrlE01w-49" vertex="1">
          <mxGeometry x="10" y="30" width="180" height="70" as="geometry" />
        </mxCell>
        <mxCell id="n-mMuuMtZOQz2WrlE01w-51" value="Confirm / Start" style="rounded=1;whiteSpace=wrap;html=1;" parent="n-mMuuMtZOQz2WrlE01w-49" vertex="1">
          <mxGeometry x="110" y="110" width="60" height="60" as="geometry" />
        </mxCell>
        <mxCell id="n-mMuuMtZOQz2WrlE01w-52" value="" style="html=1;shadow=0;dashed=0;align=center;verticalAlign=middle;shape=mxgraph.arrows2.uTurnArrow;dy=3.17;arrowHead=16.2;dx2=16.61;rotation=0;" parent="n-mMuuMtZOQz2WrlE01w-49" vertex="1">
          <mxGeometry x="10" y="160" width="30" height="30" as="geometry" />
        </mxCell>
        <mxCell id="n-mMuuMtZOQz2WrlE01w-59" value="Edit" style="rounded=1;whiteSpace=wrap;html=1;" parent="n-mMuuMtZOQz2WrlE01w-49" vertex="1">
          <mxGeometry x="40" y="110" width="60" height="60" as="geometry" />
        </mxCell>
        <mxCell id="n-mMuuMtZOQz2WrlE01w-45" style="edgeStyle=orthogonalEdgeStyle;rounded=0;orthogonalLoop=1;jettySize=auto;html=1;exitX=0;exitY=0.5;exitDx=0;exitDy=0;entryX=0.5;entryY=0;entryDx=0;entryDy=0;jumpStyle=none;" parent="1" source="n-mMuuMtZOQz2WrlE01w-30" target="n-mMuuMtZOQz2WrlE01w-49" edge="1">
          <mxGeometry relative="1" as="geometry">
            <mxPoint x="39.999999999999886" y="1190" as="targetPoint" />
          </mxGeometry>
        </mxCell>
        <mxCell id="n-mMuuMtZOQz2WrlE01w-53" style="edgeStyle=orthogonalEdgeStyle;rounded=0;orthogonalLoop=1;jettySize=auto;html=1;exitX=0;exitY=0;exitDx=0;exitDy=17.465;exitPerimeter=0;jumpStyle=arc;entryX=0;entryY=0.75;entryDx=0;entryDy=0;" parent="1" source="n-mMuuMtZOQz2WrlE01w-52" target="n-mMuuMtZOQz2WrlE01w-19" edge="1">
          <mxGeometry relative="1" as="geometry">
            <mxPoint x="100" y="1020" as="targetPoint" />
            <Array as="points">
              <mxPoint x="-70" y="1378" />
              <mxPoint x="-70" y="1015" />
            </Array>
          </mxGeometry>
        </mxCell>
        <mxCell id="n-mMuuMtZOQz2WrlE01w-62" style="rounded=0;orthogonalLoop=1;jettySize=auto;html=1;exitX=0;exitY=0.5;exitDx=0;exitDy=0;exitPerimeter=0;endArrow=none;endFill=0;" parent="1" source="n-mMuuMtZOQz2WrlE01w-61" edge="1">
          <mxGeometry relative="1" as="geometry">
            <mxPoint x="1220" y="1030" as="targetPoint" />
          </mxGeometry>
        </mxCell>
        <mxCell id="n-mMuuMtZOQz2WrlE01w-61" value="Edit button from start a quiz screen" style="shape=note;whiteSpace=wrap;html=1;backgroundOutline=1;darkOpacity=0.05;size=20;" parent="1" vertex="1">
          <mxGeometry x="1310" y="950" width="90" height="110" as="geometry" />
        </mxCell>
        <mxCell id="n-mMuuMtZOQz2WrlE01w-66" style="edgeStyle=orthogonalEdgeStyle;rounded=0;orthogonalLoop=1;jettySize=auto;html=1;exitX=0.5;exitY=1;exitDx=0;exitDy=0;jumpStyle=arc;entryX=0.5;entryY=0;entryDx=0;entryDy=0;" parent="1" source="n-mMuuMtZOQz2WrlE01w-64" target="n-mMuuMtZOQz2WrlE01w-101" edge="1">
          <mxGeometry relative="1" as="geometry">
            <mxPoint x="616.3333333333335" y="1520" as="targetPoint" />
          </mxGeometry>
        </mxCell>
        <mxCell id="n-mMuuMtZOQz2WrlE01w-64" value="Game screen 0" style="swimlane;whiteSpace=wrap;html=1;" parent="1" vertex="1">
          <mxGeometry x="516" y="1160" width="200" height="200" as="geometry" />
        </mxCell>
        <mxCell id="n-mMuuMtZOQz2WrlE01w-65" value="Waiting for start" style="rounded=0;whiteSpace=wrap;html=1;" parent="n-mMuuMtZOQz2WrlE01w-64" vertex="1">
          <mxGeometry x="44" y="80" width="120" height="60" as="geometry" />
        </mxCell>
        <mxCell id="n-mMuuMtZOQz2WrlE01w-63" style="edgeStyle=orthogonalEdgeStyle;rounded=0;orthogonalLoop=1;jettySize=auto;html=1;exitX=0.5;exitY=1;exitDx=0;exitDy=0;entryX=0.5;entryY=0;entryDx=0;entryDy=0;" parent="1" source="n-mMuuMtZOQz2WrlE01w-58" target="n-mMuuMtZOQz2WrlE01w-64" edge="1">
          <mxGeometry relative="1" as="geometry">
            <mxPoint x="616.3333333333335" y="1170" as="targetPoint" />
          </mxGeometry>
        </mxCell>
        <mxCell id="n-mMuuMtZOQz2WrlE01w-68" value="Vertical Container" style="swimlane;whiteSpace=wrap;html=1;" parent="1" vertex="1">
          <mxGeometry x="810" y="1490" width="200" height="200" as="geometry" />
        </mxCell>
        <mxCell id="n-mMuuMtZOQz2WrlE01w-76" value="Questoin content" style="rounded=0;whiteSpace=wrap;html=1;" parent="n-mMuuMtZOQz2WrlE01w-68" vertex="1">
          <mxGeometry x="40" y="40" width="120" height="60" as="geometry" />
        </mxCell>
        <mxCell id="n-mMuuMtZOQz2WrlE01w-77" value="Possible answers" style="rounded=0;whiteSpace=wrap;html=1;" parent="n-mMuuMtZOQz2WrlE01w-68" vertex="1">
          <mxGeometry x="40" y="130" width="120" height="60" as="geometry" />
        </mxCell>
        <mxCell id="n-mMuuMtZOQz2WrlE01w-84" style="edgeStyle=orthogonalEdgeStyle;rounded=0;orthogonalLoop=1;jettySize=auto;html=1;exitX=1;exitY=0.5;exitDx=0;exitDy=0;entryX=0;entryY=0.5;entryDx=0;entryDy=0;" parent="1" source="n-mMuuMtZOQz2WrlE01w-79" target="n-mMuuMtZOQz2WrlE01w-82" edge="1">
          <mxGeometry relative="1" as="geometry" />
        </mxCell>
        <mxCell id="n-mMuuMtZOQz2WrlE01w-79" value="Pre-result screen" style="swimlane;whiteSpace=wrap;html=1;" parent="1" vertex="1">
          <mxGeometry x="1100" y="1500" width="200" height="200" as="geometry" />
        </mxCell>
        <mxCell id="n-mMuuMtZOQz2WrlE01w-80" value="Quesiton" style="rounded=0;whiteSpace=wrap;html=1;" parent="n-mMuuMtZOQz2WrlE01w-79" vertex="1">
          <mxGeometry x="40" y="50" width="120" height="60" as="geometry" />
        </mxCell>
        <mxCell id="n-mMuuMtZOQz2WrlE01w-81" value="Chosen answer" style="rounded=0;whiteSpace=wrap;html=1;" parent="n-mMuuMtZOQz2WrlE01w-79" vertex="1">
          <mxGeometry x="40" y="120" width="120" height="60" as="geometry" />
        </mxCell>
        <mxCell id="n-mMuuMtZOQz2WrlE01w-78" style="edgeStyle=orthogonalEdgeStyle;rounded=0;orthogonalLoop=1;jettySize=auto;html=1;exitX=1;exitY=0.5;exitDx=0;exitDy=0;entryX=0;entryY=0.75;entryDx=0;entryDy=0;" parent="1" source="n-mMuuMtZOQz2WrlE01w-77" target="n-mMuuMtZOQz2WrlE01w-79" edge="1">
          <mxGeometry relative="1" as="geometry">
            <mxPoint x="1110" y="1650" as="targetPoint" />
          </mxGeometry>
        </mxCell>
        <mxCell id="n-mMuuMtZOQz2WrlE01w-85" style="edgeStyle=orthogonalEdgeStyle;rounded=0;orthogonalLoop=1;jettySize=auto;html=1;entryX=0.5;entryY=1;entryDx=0;entryDy=0;exitX=0;exitY=0.5;exitDx=0;exitDy=0;exitPerimeter=0;" parent="1" source="n-mMuuMtZOQz2WrlE01w-110" target="n-mMuuMtZOQz2WrlE01w-101" edge="1">
          <mxGeometry relative="1" as="geometry">
            <mxPoint x="1290" y="1780" as="sourcePoint" />
            <mxPoint x="420" y="1860" as="targetPoint" />
            <Array as="points">
              <mxPoint x="280" y="1790" />
            </Array>
          </mxGeometry>
        </mxCell>
        <mxCell id="n-mMuuMtZOQz2WrlE01w-111" style="edgeStyle=orthogonalEdgeStyle;rounded=0;orthogonalLoop=1;jettySize=auto;html=1;exitX=0.5;exitY=1;exitDx=0;exitDy=0;entryX=0.5;entryY=0;entryDx=0;entryDy=0;entryPerimeter=0;" parent="1" source="n-mMuuMtZOQz2WrlE01w-82" target="n-mMuuMtZOQz2WrlE01w-110" edge="1">
          <mxGeometry relative="1" as="geometry" />
        </mxCell>
        <mxCell id="n-mMuuMtZOQz2WrlE01w-82" value="Question result screen" style="swimlane;whiteSpace=wrap;html=1;" parent="1" vertex="1">
          <mxGeometry x="1380" y="1500" width="200" height="200" as="geometry" />
        </mxCell>
        <mxCell id="n-mMuuMtZOQz2WrlE01w-83" value="Result" style="rounded=0;whiteSpace=wrap;html=1;" parent="n-mMuuMtZOQz2WrlE01w-82" vertex="1">
          <mxGeometry x="40" y="50" width="120" height="110" as="geometry" />
        </mxCell>
        <mxCell id="n-mMuuMtZOQz2WrlE01w-87" style="rounded=0;orthogonalLoop=1;jettySize=auto;html=1;exitX=0;exitY=0.5;exitDx=0;exitDy=0;exitPerimeter=0;endArrow=none;endFill=0;" parent="1" source="n-mMuuMtZOQz2WrlE01w-86" edge="1">
          <mxGeometry relative="1" as="geometry">
            <mxPoint x="620" y="1410" as="targetPoint" />
          </mxGeometry>
        </mxCell>
        <mxCell id="n-mMuuMtZOQz2WrlE01w-86" value="Auto" style="shape=note;whiteSpace=wrap;html=1;backgroundOutline=1;darkOpacity=0.05;size=18;" parent="1" vertex="1">
          <mxGeometry x="716" y="1400" width="50" height="70" as="geometry" />
        </mxCell>
        <mxCell id="n-mMuuMtZOQz2WrlE01w-108" style="edgeStyle=orthogonalEdgeStyle;rounded=0;orthogonalLoop=1;jettySize=auto;html=1;exitX=0;exitY=0;exitDx=16;exitDy=0;exitPerimeter=0;endArrow=none;endFill=0;" parent="1" source="n-mMuuMtZOQz2WrlE01w-88" edge="1">
          <mxGeometry relative="1" as="geometry">
            <mxPoint x="426.2608695652175" y="1610" as="targetPoint" />
          </mxGeometry>
        </mxCell>
        <mxCell id="n-mMuuMtZOQz2WrlE01w-88" value="Auto" style="shape=note;whiteSpace=wrap;html=1;backgroundOutline=1;darkOpacity=0.05;size=18;" parent="1" vertex="1">
          <mxGeometry x="410" y="1670" width="50" height="70" as="geometry" />
        </mxCell>
        <mxCell id="n-mMuuMtZOQz2WrlE01w-91" style="edgeStyle=orthogonalEdgeStyle;rounded=0;orthogonalLoop=1;jettySize=auto;html=1;exitX=0.5;exitY=1;exitDx=0;exitDy=0;exitPerimeter=0;endArrow=none;endFill=0;" parent="1" source="n-mMuuMtZOQz2WrlE01w-90" edge="1">
          <mxGeometry relative="1" as="geometry">
            <mxPoint x="1334.9565217391305" y="1600" as="targetPoint" />
          </mxGeometry>
        </mxCell>
        <mxCell id="n-mMuuMtZOQz2WrlE01w-90" value="Auto" style="shape=note;whiteSpace=wrap;html=1;backgroundOutline=1;darkOpacity=0.05;size=18;" parent="1" vertex="1">
          <mxGeometry x="1310" y="1480" width="50" height="70" as="geometry" />
        </mxCell>
        <mxCell id="n-mMuuMtZOQz2WrlE01w-92" value="Vertical Container" style="swimlane;whiteSpace=wrap;html=1;" parent="1" vertex="1">
          <mxGeometry x="500" y="1470" width="200" height="270" as="geometry" />
        </mxCell>
        <mxCell id="n-mMuuMtZOQz2WrlE01w-93" value="Topic 1" style="rounded=0;whiteSpace=wrap;html=1;" parent="n-mMuuMtZOQz2WrlE01w-92" vertex="1">
          <mxGeometry x="20" y="40" width="80" height="60" as="geometry" />
        </mxCell>
        <mxCell id="n-mMuuMtZOQz2WrlE01w-94" value="Topic 2" style="rounded=0;whiteSpace=wrap;html=1;" parent="n-mMuuMtZOQz2WrlE01w-92" vertex="1">
          <mxGeometry x="105" y="40" width="80" height="60" as="geometry" />
        </mxCell>
        <mxCell id="n-mMuuMtZOQz2WrlE01w-95" value="Topic 3" style="rounded=0;whiteSpace=wrap;html=1;" parent="n-mMuuMtZOQz2WrlE01w-92" vertex="1">
          <mxGeometry x="20" y="160" width="80" height="60" as="geometry" />
        </mxCell>
        <mxCell id="n-mMuuMtZOQz2WrlE01w-96" value="Topic 4" style="rounded=0;whiteSpace=wrap;html=1;" parent="n-mMuuMtZOQz2WrlE01w-92" vertex="1">
          <mxGeometry x="105" y="160" width="80" height="60" as="geometry" />
        </mxCell>
        <mxCell id="n-mMuuMtZOQz2WrlE01w-97" style="edgeStyle=orthogonalEdgeStyle;rounded=1;orthogonalLoop=1;jettySize=auto;html=1;exitX=0.5;exitY=1;exitDx=0;exitDy=0;entryX=0;entryY=0.5;entryDx=0;entryDy=0;" parent="1" source="n-mMuuMtZOQz2WrlE01w-93" target="n-mMuuMtZOQz2WrlE01w-68" edge="1">
          <mxGeometry relative="1" as="geometry">
            <mxPoint x="516" y="1590" as="targetPoint" />
          </mxGeometry>
        </mxCell>
        <mxCell id="n-mMuuMtZOQz2WrlE01w-98" style="edgeStyle=orthogonalEdgeStyle;rounded=1;orthogonalLoop=1;jettySize=auto;html=1;exitX=0.5;exitY=1;exitDx=0;exitDy=0;entryX=0;entryY=0.5;entryDx=0;entryDy=0;" parent="1" source="n-mMuuMtZOQz2WrlE01w-94" target="n-mMuuMtZOQz2WrlE01w-68" edge="1">
          <mxGeometry relative="1" as="geometry">
            <mxPoint x="516" y="1590" as="targetPoint" />
          </mxGeometry>
        </mxCell>
        <mxCell id="n-mMuuMtZOQz2WrlE01w-99" style="edgeStyle=orthogonalEdgeStyle;rounded=1;orthogonalLoop=1;jettySize=auto;html=1;exitX=0.5;exitY=0;exitDx=0;exitDy=0;entryX=0;entryY=0.5;entryDx=0;entryDy=0;" parent="1" source="n-mMuuMtZOQz2WrlE01w-95" target="n-mMuuMtZOQz2WrlE01w-68" edge="1">
          <mxGeometry relative="1" as="geometry">
            <mxPoint x="516" y="1590" as="targetPoint" />
          </mxGeometry>
        </mxCell>
        <mxCell id="n-mMuuMtZOQz2WrlE01w-54" style="edgeStyle=orthogonalEdgeStyle;rounded=1;orthogonalLoop=1;jettySize=auto;html=1;exitX=0;exitY=0.5;exitDx=0;exitDy=0;endArrow=none;endFill=0;entryX=0.5;entryY=0;entryDx=0;entryDy=0;" parent="1" source="n-mMuuMtZOQz2WrlE01w-31" target="n-mMuuMtZOQz2WrlE01w-49" edge="1">
          <mxGeometry relative="1" as="geometry">
            <mxPoint x="50" y="940" as="targetPoint" />
          </mxGeometry>
        </mxCell>
        <mxCell id="n-mMuuMtZOQz2WrlE01w-55" style="edgeStyle=orthogonalEdgeStyle;rounded=1;orthogonalLoop=1;jettySize=auto;html=1;exitX=0;exitY=0.5;exitDx=0;exitDy=0;endArrow=none;endFill=0;entryX=0.5;entryY=0;entryDx=0;entryDy=0;" parent="1" source="n-mMuuMtZOQz2WrlE01w-32" target="n-mMuuMtZOQz2WrlE01w-49" edge="1">
          <mxGeometry relative="1" as="geometry">
            <mxPoint x="50" y="970.4000000000001" as="targetPoint" />
          </mxGeometry>
        </mxCell>
        <mxCell id="n-mMuuMtZOQz2WrlE01w-56" style="edgeStyle=orthogonalEdgeStyle;rounded=1;orthogonalLoop=1;jettySize=auto;html=1;exitX=0;exitY=0.5;exitDx=0;exitDy=0;endArrow=none;endFill=0;entryX=0.5;entryY=0;entryDx=0;entryDy=0;" parent="1" source="n-mMuuMtZOQz2WrlE01w-33" target="n-mMuuMtZOQz2WrlE01w-49" edge="1">
          <mxGeometry relative="1" as="geometry">
            <mxPoint x="50" y="1000" as="targetPoint" />
          </mxGeometry>
        </mxCell>
        <mxCell id="n-mMuuMtZOQz2WrlE01w-106" style="edgeStyle=orthogonalEdgeStyle;rounded=0;orthogonalLoop=1;jettySize=auto;html=1;exitX=1;exitY=0.5;exitDx=0;exitDy=0;entryX=0;entryY=0.5;entryDx=0;entryDy=0;" parent="1" source="n-mMuuMtZOQz2WrlE01w-101" target="n-mMuuMtZOQz2WrlE01w-92" edge="1">
          <mxGeometry relative="1" as="geometry">
            <mxPoint x="500" y="1540" as="targetPoint" />
          </mxGeometry>
        </mxCell>
        <mxCell id="n-mMuuMtZOQz2WrlE01w-101" value="Question preview screen" style="swimlane;whiteSpace=wrap;html=1;" parent="1" vertex="1">
          <mxGeometry x="180" y="1505" width="200" height="200" as="geometry" />
        </mxCell>
        <mxCell id="n-mMuuMtZOQz2WrlE01w-102" value="Intro content" style="rounded=0;whiteSpace=wrap;html=1;" parent="n-mMuuMtZOQz2WrlE01w-101" vertex="1">
          <mxGeometry x="44" y="50" width="120" height="70" as="geometry" />
        </mxCell>
        <mxCell id="n-mMuuMtZOQz2WrlE01w-103" value="Timer until question" style="rounded=0;whiteSpace=wrap;html=1;" parent="n-mMuuMtZOQz2WrlE01w-101" vertex="1">
          <mxGeometry x="44" y="130" width="120" height="60" as="geometry" />
        </mxCell>
        <mxCell id="n-mMuuMtZOQz2WrlE01w-104" value="" style="shape=collate;whiteSpace=wrap;html=1;" parent="n-mMuuMtZOQz2WrlE01w-101" vertex="1">
          <mxGeometry x="54" y="140" width="10" height="10" as="geometry" />
        </mxCell>
        <mxCell id="n-mMuuMtZOQz2WrlE01w-105" style="edgeStyle=orthogonalEdgeStyle;rounded=1;orthogonalLoop=1;jettySize=auto;html=1;exitX=0.5;exitY=0;exitDx=0;exitDy=0;entryX=0;entryY=0.5;entryDx=0;entryDy=0;" parent="1" source="n-mMuuMtZOQz2WrlE01w-96" target="n-mMuuMtZOQz2WrlE01w-68" edge="1">
          <mxGeometry relative="1" as="geometry" />
        </mxCell>
        <mxCell id="n-mMuuMtZOQz2WrlE01w-113" style="edgeStyle=orthogonalEdgeStyle;rounded=0;orthogonalLoop=1;jettySize=auto;html=1;exitX=0.5;exitY=1;exitDx=0;exitDy=0;exitPerimeter=0;" parent="1" source="n-mMuuMtZOQz2WrlE01w-110" target="n-mMuuMtZOQz2WrlE01w-114" edge="1">
          <mxGeometry relative="1" as="geometry">
            <mxPoint x="1479.7368421052633" y="1890" as="targetPoint" />
          </mxGeometry>
        </mxCell>
        <mxCell id="n-mMuuMtZOQz2WrlE01w-110" value="" style="strokeWidth=2;html=1;shape=mxgraph.flowchart.decision;whiteSpace=wrap;" parent="1" vertex="1">
          <mxGeometry x="1450" y="1760" width="60" height="60" as="geometry" />
        </mxCell>
        <mxCell id="n-mMuuMtZOQz2WrlE01w-112" value="If NOT last question" style="rounded=1;whiteSpace=wrap;html=1;arcSize=0;" parent="1" vertex="1">
          <mxGeometry x="1320" y="1750" width="120" height="30" as="geometry" />
        </mxCell>
        <mxCell id="n-mMuuMtZOQz2WrlE01w-114" value="Overall result screen" style="swimlane;whiteSpace=wrap;html=1;" parent="1" vertex="1">
          <mxGeometry x="1379.9968421052633" y="1930" width="200" height="200" as="geometry" />
        </mxCell>
        <mxCell id="n-mMuuMtZOQz2WrlE01w-118" value="Finnish" style="rounded=1;whiteSpace=wrap;html=1;" parent="n-mMuuMtZOQz2WrlE01w-114" vertex="1">
          <mxGeometry x="60" y="140" width="80" height="40" as="geometry" />
        </mxCell>
        <mxCell id="n-mMuuMtZOQz2WrlE01w-115" value="If last question" style="rounded=1;whiteSpace=wrap;html=1;arcSize=0;" parent="1" vertex="1">
          <mxGeometry x="1500" y="1820" width="120" height="30" as="geometry" />
        </mxCell>
        <mxCell id="n-mMuuMtZOQz2WrlE01w-116" value="Content" style="rounded=0;whiteSpace=wrap;html=1;" parent="1" vertex="1">
          <mxGeometry x="1420" y="1970" width="120" height="90" as="geometry" />
        </mxCell>
        <mxCell id="n-mMuuMtZOQz2WrlE01w-119" style="edgeStyle=orthogonalEdgeStyle;rounded=0;orthogonalLoop=1;jettySize=auto;html=1;exitX=0;exitY=0.5;exitDx=0;exitDy=0;entryX=0;entryY=0.5;entryDx=0;entryDy=0;" parent="1" source="n-mMuuMtZOQz2WrlE01w-118" target="n-mMuuMtZOQz2WrlE01w-10" edge="1">
          <mxGeometry relative="1" as="geometry">
            <Array as="points">
              <mxPoint x="-160" y="2090" />
              <mxPoint x="-160" y="715" />
            </Array>
          </mxGeometry>
        </mxCell>
        <mxCell id="n-mMuuMtZOQz2WrlE01w-121" style="edgeStyle=orthogonalEdgeStyle;rounded=0;orthogonalLoop=1;jettySize=auto;html=1;exitX=0.5;exitY=1;exitDx=0;exitDy=0;exitPerimeter=0;endArrow=none;endFill=0;" parent="1" source="n-mMuuMtZOQz2WrlE01w-120" edge="1">
          <mxGeometry relative="1" as="geometry">
            <mxPoint x="1239.7368421052633" y="2090" as="targetPoint" />
          </mxGeometry>
        </mxCell>
        <mxCell id="n-mMuuMtZOQz2WrlE01w-120" value="To play screen (join / host game screen)" style="shape=note;whiteSpace=wrap;html=1;backgroundOutline=1;darkOpacity=0.05;" parent="1" vertex="1">
          <mxGeometry x="1200" y="1930" width="80" height="100" as="geometry" />
        </mxCell>
        <mxCell id="n-mMuuMtZOQz2WrlE01w-122" value="TO DO" style="rounded=0;whiteSpace=wrap;html=1;fillColor=#f8cecc;strokeColor=#b85450;" parent="1" vertex="1">
          <mxGeometry x="1150" y="850" width="120" height="60" as="geometry" />
        </mxCell>
        <mxCell id="n-mMuuMtZOQz2WrlE01w-60" style="edgeStyle=orthogonalEdgeStyle;rounded=0;orthogonalLoop=1;jettySize=auto;html=1;exitX=0.5;exitY=1;exitDx=0;exitDy=0;jumpStyle=arc;entryX=0.5;entryY=1;entryDx=0;entryDy=0;" parent="1" source="n-mMuuMtZOQz2WrlE01w-59" target="n-mMuuMtZOQz2WrlE01w-122" edge="1">
          <mxGeometry relative="1" as="geometry">
            <mxPoint x="1210" y="920" as="targetPoint" />
          </mxGeometry>
        </mxCell>
        <mxCell id="n-mMuuMtZOQz2WrlE01w-124" value="TODO" style="rounded=0;whiteSpace=wrap;html=1;fillColor=#f8cecc;strokeColor=#b85450;" parent="1" vertex="1">
          <mxGeometry x="-50" y="480" width="120" height="60" as="geometry" />
        </mxCell>
        <mxCell id="n-mMuuMtZOQz2WrlE01w-123" style="edgeStyle=orthogonalEdgeStyle;rounded=0;orthogonalLoop=1;jettySize=auto;html=1;exitX=0.5;exitY=1;exitDx=0;exitDy=0;" parent="1" source="n-mMuuMtZOQz2WrlE01w-6" target="n-mMuuMtZOQz2WrlE01w-124" edge="1">
          <mxGeometry relative="1" as="geometry">
            <mxPoint x="60" y="520" as="targetPoint" />
            <Array as="points">
              <mxPoint x="362" y="520" />
            </Array>
          </mxGeometry>
        </mxCell>
        <mxCell id="n-mMuuMtZOQz2WrlE01w-126" value="TODO" style="rounded=0;whiteSpace=wrap;html=1;fillColor=#f8cecc;strokeColor=#b85450;" parent="1" vertex="1">
          <mxGeometry x="840" y="480" width="120" height="60" as="geometry" />
        </mxCell>
        <mxCell id="n-mMuuMtZOQz2WrlE01w-125" style="edgeStyle=orthogonalEdgeStyle;rounded=0;orthogonalLoop=1;jettySize=auto;html=1;exitX=0.5;exitY=1;exitDx=0;exitDy=0;" parent="1" source="n-mMuuMtZOQz2WrlE01w-8" target="n-mMuuMtZOQz2WrlE01w-126" edge="1">
          <mxGeometry relative="1" as="geometry">
            <mxPoint x="900" y="510" as="targetPoint" />
            <Array as="points">
              <mxPoint x="487" y="510" />
            </Array>
          </mxGeometry>
        </mxCell>
        <mxCell id="Lq3URIFM82wCFXjZbgQg-2" value="TODO" style="rounded=0;whiteSpace=wrap;html=1;fillColor=#f8cecc;strokeColor=#b85450;" parent="1" vertex="1">
          <mxGeometry x="-50" y="1600" width="120" height="60" as="geometry" />
        </mxCell>
        <mxCell id="Lq3URIFM82wCFXjZbgQg-1" style="edgeStyle=orthogonalEdgeStyle;rounded=0;orthogonalLoop=1;jettySize=auto;html=1;exitX=0.5;exitY=1;exitDx=0;exitDy=0;entryX=0.5;entryY=0;entryDx=0;entryDy=0;" parent="1" source="n-mMuuMtZOQz2WrlE01w-51" target="Lq3URIFM82wCFXjZbgQg-2" edge="1">
          <mxGeometry relative="1" as="geometry">
            <mxPoint x="-80" y="1650" as="targetPoint" />
          </mxGeometry>
        </mxCell>
      </root>
    </mxGraphModel>
  </diagram>
</mxfile>
